<svg width="28" height="28" viewBox="0 0 28 28" fill="none" xmlns="http://www.w3.org/2000/svg">
<g id="ep:location">
<path id="Vector" d="M21.4881 11.1735C21.4881 9.12189 20.6731 7.15428 19.2224 5.70355C17.7717 4.25281 15.804 3.4378 13.7524 3.4378C11.7007 3.4378 9.73314 4.25281 8.2824 5.70355C6.83167 7.15428 6.01666 9.12189 6.01666 11.1735C6.01666 14.3469 8.5557 18.4829 13.7524 23.4373C18.9491 18.4829 21.4881 14.3469 21.4881 11.1735ZM13.7524 25.7855C7.44863 20.0559 4.29761 15.1841 4.29761 11.1735C4.29761 8.66597 5.29373 6.26111 7.06685 4.48799C8.83997 2.71488 11.2448 1.71875 13.7524 1.71875C16.26 1.71875 18.6648 2.71488 20.4379 4.48799C22.2111 6.26111 23.2072 8.66597 23.2072 11.1735C23.2072 15.1841 20.0562 20.0559 13.7524 25.7855Z" fill="#7D7D7D"/>
<path id="Vector_2" d="M13.7525 13.7529C14.4363 13.7529 15.0922 13.4812 15.5758 12.9977C16.0594 12.5141 16.331 11.8582 16.331 11.1743C16.331 10.4905 16.0594 9.83459 15.5758 9.35101C15.0922 8.86743 14.4363 8.59576 13.7525 8.59576C13.0686 8.59576 12.4127 8.86743 11.9291 9.35101C11.4456 9.83459 11.1739 10.4905 11.1739 11.1743C11.1739 11.8582 11.4456 12.5141 11.9291 12.9977C12.4127 13.4812 13.0686 13.7529 13.7525 13.7529ZM13.7525 15.472C12.6127 15.472 11.5195 15.0192 10.7136 14.2132C9.90762 13.4073 9.45483 12.3141 9.45483 11.1743C9.45483 10.0345 9.90762 8.94142 10.7136 8.13546C11.5195 7.32949 12.6127 6.87671 13.7525 6.87671C14.8923 6.87671 15.9854 7.32949 16.7913 8.13546C17.5973 8.94142 18.0501 10.0345 18.0501 11.1743C18.0501 12.3141 17.5973 13.4073 16.7913 14.2132C15.9854 15.0192 14.8923 15.472 13.7525 15.472Z" fill="#7D7D7D"/>
</g>
</svg>
