<svg width="105" height="62" viewBox="0 0 105 62" fill="none" xmlns="http://www.w3.org/2000/svg">
<g id="logo-02 2" clip-path="url(#clip0_31_142)">
<path id="Vector" d="M105 32.1262C103.455 31.4384 102.084 30.6426 100.821 29.6716C97.7169 27.2574 94.6397 24.8027 91.5088 22.429C88.1226 19.853 84.6557 17.3579 80.853 15.4022C79.7242 14.8223 78.5283 14.3907 77.3592 13.8917C77.292 13.9456 77.2383 13.9996 77.1711 14.0535C77.2383 15.1325 77.2786 16.225 77.3995 17.3039C77.7489 20.6757 78.2327 24.034 78.0714 27.4327C78.0042 28.9567 77.7758 30.4538 77.2383 31.8969C76.002 35.2012 72.9114 35.997 70.2911 35.2147C68.4771 34.6618 66.9452 33.5828 65.5074 32.3959C62.2556 29.7255 59.4875 26.583 56.8537 23.3057C54.0184 19.7855 51.2638 16.198 48.9122 12.3272C48.3882 11.4505 47.7297 10.6548 47.0578 9.88604C46.2113 8.91497 45.8082 8.87451 44.6794 9.46794C43.3626 10.1558 42.2607 11.1403 41.3604 12.3002C39.3448 14.9032 37.3695 17.5332 35.4479 20.2036C33.1904 23.3596 31.0673 26.61 28.4201 29.4692C27.2108 30.7775 25.9073 31.9778 24.3217 32.8275C21.5805 34.2841 18.799 33.6772 16.9177 31.2091C15.8965 29.8604 15.3052 28.3094 14.8349 26.7044C14.7677 26.4886 14.714 26.2863 14.6468 26.0705C14.6334 26.0166 14.593 25.9761 14.5393 25.8817C13.7196 26.7853 12.8999 27.6755 12.0937 28.5656C9.93025 30.9528 7.80714 33.3805 5.58997 35.7003C4.44779 36.9006 3.13092 37.9391 1.85436 39.0046C1.46468 39.3283 0.980932 39.5306 0.52406 39.7464C0.376248 39.8138 0.161249 39.6924 -0.0268745 39.6655C0.0403126 39.5171 0.1075 39.3687 0.188124 39.2204C0.403123 38.8158 0.604684 38.4112 0.859995 38.02C3.05029 34.6887 5.24059 31.3439 7.45777 28.0261C8.84182 25.9491 10.2393 23.8991 11.6771 21.876C12.3087 20.9859 13.0343 20.1497 13.7734 19.354C14.1093 18.9898 14.5662 18.6931 15.0096 18.4638C16.3533 17.7625 17.7777 18.1941 18.4361 19.5563C18.8796 20.4869 19.1886 21.4984 19.5246 22.483C19.9008 23.5889 20.2233 24.7083 20.6264 25.8143C20.7877 26.2593 21.0564 26.6504 21.3521 27.2034C21.9299 26.583 22.4942 26.111 22.8974 25.5175C24.4427 23.2113 25.9745 20.8915 27.4123 18.5178C29.6967 14.7414 31.9004 10.9245 34.6417 7.44489C36.281 5.36788 38.0682 3.43923 40.2719 1.94217C42.1397 0.714846 44.1285 -0.0808907 46.3994 3.16249e-05C49.2078 0.107928 51.5191 1.30828 53.4944 3.25041C55.8459 5.58367 57.7137 8.29457 59.595 11.0055C62.1615 14.6874 64.7012 18.3829 67.308 22.0244C68.1412 23.1843 69.1624 24.1958 70.103 25.2613C70.2105 25.3962 70.3583 25.4906 70.5196 25.6389C70.5196 24.4521 70.5465 23.3326 70.5196 22.1997C70.4121 19.0303 70.1568 15.8608 70.6943 12.7183C70.8018 12.1249 70.9361 11.5315 71.1377 10.965C71.9843 8.44293 74.0267 7.20212 76.6605 7.5393C78.9045 7.83601 80.8933 8.76662 82.8014 9.89953C86.4429 12.0575 89.641 14.7818 92.7182 17.6546C95.9969 20.7161 99.101 23.953 101.95 27.4192C103.025 28.7275 103.844 30.2245 104.785 31.6541C104.866 31.7755 104.906 31.9104 105.013 32.1262H105Z" fill="#FF002B"/>
<g id="Group">
<path id="Vector_2" d="M13.6793 62.0005H9.84963V55.9043H3.8431V62.0005H0V46.8545H3.8431V52.8023H9.86307V46.8545H13.6927V62.0005H13.6793Z" fill="black"/>
<path id="Vector_3" d="M19.8068 62H15.9637V46.854H19.8068V62Z" fill="black"/>
<path id="Vector_4" d="M25.9342 62H22.0911V46.854H25.9342V53.5166H26.0148L31.1479 46.854H35.2732L30.0058 53.584L35.5688 62H31.0673L27.2242 56.0792L25.9342 57.7111V62Z" fill="black"/>
<path id="Vector_5" d="M47.0847 58.8845V61.9865H36.7379V46.8406H47.0847V49.9426H40.581V52.9502H46.695V55.7825H40.581V58.871H47.0847V58.8845Z" fill="black"/>
<path id="Vector_6" d="M65.8165 62H62.4437V52.5455H62.3765L58.6409 61.8516H56.4506L52.7284 52.5455H52.6478V62H49.275V46.854H53.7094L57.5122 56.5917H57.5928L61.3956 46.854H65.8299V62H65.8165Z" fill="black"/>
<path id="Vector_7" d="M78.0311 62L77.077 58.6687H72.1455L71.178 62H67.2677L72.3471 46.854H77.0367L82.1161 62H78.0311ZM74.5642 50.0639L72.8846 55.9038H76.3245L74.6449 50.0639H74.5642Z" fill="black"/>
<path id="Vector_8" d="M88.8751 62H85.0454V49.956H80.8798V46.854H93.0273V49.956H88.8617V62H88.8751Z" fill="black"/>
<path id="Vector_9" d="M105 58.8845V61.9865H94.6532V46.8406H105V49.9426H98.4963V52.9502H104.61V55.7825H98.4963V58.871H105V58.8845Z" fill="black"/>
</g>
</g>
<defs>
<clipPath id="clip0_31_142">
<rect width="105" height="62" fill="white"/>
</clipPath>
</defs>
</svg>
