<svg width="105" height="62" viewBox="0 0 105 62" fill="none" xmlns="http://www.w3.org/2000/svg">
<g id="logo-02 1" clip-path="url(#clip0_25_211)">
<path id="Vector" d="M105 32.1259C103.455 31.4381 102.084 30.6424 100.821 29.6713C97.7169 27.2571 94.6398 24.8025 91.5088 22.4288C88.1226 19.8527 84.6558 17.3576 80.853 15.402C79.7242 14.8221 78.5283 14.3905 77.3592 13.8915C77.2921 13.9454 77.2383 13.9993 77.1711 14.0533C77.2383 15.1323 77.2786 16.2247 77.3996 17.3037C77.7489 20.6754 78.2327 24.0337 78.0714 27.4325C78.0042 28.9565 77.7758 30.4536 77.2383 31.8967C76.0021 35.201 72.9115 35.9967 70.2912 35.2145C68.4771 34.6615 66.9452 33.5826 65.5074 32.3957C62.2556 29.7253 59.4875 26.5828 56.8537 23.3054C54.0185 19.7853 51.2638 16.1977 48.9122 12.327C48.3882 11.4503 47.7297 10.6546 47.0579 9.8858C46.2113 8.91473 45.8082 8.87427 44.6794 9.4677C43.3626 10.1555 42.2607 11.1401 41.3604 12.3C39.3448 14.903 37.3695 17.533 35.4479 20.2034C33.1904 23.3594 31.0673 26.6097 28.4202 29.469C27.2108 30.7772 25.9074 31.9776 24.3218 32.8273C21.5805 34.2839 18.799 33.677 16.9177 31.2088C15.8965 29.8601 15.3052 28.3091 14.8349 26.7042C14.7677 26.4884 14.714 26.2861 14.6468 26.0703C14.6334 26.0163 14.5931 25.9759 14.5393 25.8814C13.7196 26.7851 12.8999 27.6752 12.0937 28.5654C9.93027 30.9526 7.80716 33.3802 5.58999 35.7C4.44781 36.9004 3.13094 37.9389 1.85438 39.0043C1.4647 39.328 0.980951 39.5303 0.524079 39.7461C0.376267 39.8136 0.161268 39.6922 -0.0268555 39.6652C0.0403316 39.5169 0.107519 39.3685 0.188143 39.2201C0.403142 38.8155 0.604703 38.4109 0.860014 38.0198C3.05031 34.6885 5.24061 31.3437 7.45779 28.0259C8.84184 25.9489 10.2393 23.8988 11.6771 21.8758C12.3087 20.9856 13.0343 20.1494 13.7734 19.3537C14.1093 18.9896 14.5662 18.6928 15.0096 18.4636C16.3534 17.7622 17.7777 18.1938 18.4362 19.556C18.8796 20.4866 19.1887 21.4982 19.5246 22.4827C19.9008 23.5886 20.2233 24.7081 20.6265 25.814C20.7877 26.2591 21.0565 26.6502 21.3521 27.2032C21.9299 26.5828 22.4943 26.1107 22.8974 25.5173C24.4427 23.211 25.9746 20.8912 27.4124 18.5175C29.6967 14.7411 31.9005 10.9243 34.6417 7.44464C36.2811 5.36764 38.0682 3.43899 40.272 1.94192C42.1398 0.714601 44.1285 -0.0811348 46.3994 -0.000212516C49.2079 0.107684 51.5191 1.30803 53.4944 3.25017C55.8459 5.58343 57.7137 8.29432 59.595 11.0052C62.1615 14.6872 64.7012 18.3826 67.3081 22.0241C68.1412 23.184 69.1624 24.1956 70.103 25.261C70.2105 25.3959 70.3584 25.4903 70.5196 25.6387C70.5196 24.4518 70.5465 23.3324 70.5196 22.1995C70.4121 19.03 70.1568 15.8606 70.6943 12.7181C70.8018 12.1246 70.9362 11.5312 71.1377 10.9648C71.9843 8.44268 74.0268 7.20187 76.6605 7.53905C78.9045 7.83577 80.8933 8.76637 82.8014 9.89929C86.4429 12.0572 89.641 14.7816 92.7182 17.6543C95.9969 20.7159 99.101 23.9528 101.95 27.419C103.025 28.7272 103.844 30.2243 104.785 31.6539C104.866 31.7753 104.906 31.9102 105.013 32.1259H105Z" fill="#FF002B"/>
<g id="Group">
<path id="Vector_2" d="M13.6793 62H9.84963V55.9038H3.8431V62H0V46.854H3.8431V52.8018H9.86307V46.854H13.6927V62H13.6793Z" fill="#1A1A1A"/>
<path id="Vector_3" d="M19.8067 62H15.9636V46.854H19.8067V62Z" fill="#1A1A1A"/>
<path id="Vector_4" d="M25.9342 62H22.0911V46.854H25.9342V53.5166H26.0148L31.1479 46.854H35.2732L30.0057 53.584L35.5688 62H31.0673L27.2242 56.0792L25.9342 57.7111V62Z" fill="#1A1A1A"/>
<path id="Vector_5" d="M47.0846 58.8843V61.9863H36.7378V46.8403H47.0846V49.9424H40.5809V52.95H46.6949V55.7823H40.5809V58.8708H47.0846V58.8843Z" fill="#1A1A1A"/>
<path id="Vector_6" d="M65.8164 62H62.4436V52.5455H62.3764L58.6408 61.8516H56.4505L52.7283 52.5455H52.6477V62H49.2749V46.854H53.7093L57.512 56.5917H57.5927L61.3955 46.854H65.8298V62H65.8164Z" fill="#1A1A1A"/>
<path id="Vector_7" d="M78.0312 62L77.0771 58.6687H72.1456L71.1781 62H67.2678L72.3472 46.854H77.0368L82.1162 62H78.0312ZM74.5643 50.0639L72.8847 55.9038H76.3246L74.645 50.0639H74.5643Z" fill="#1A1A1A"/>
<path id="Vector_8" d="M88.8751 62H85.0455V49.956H80.8799V46.854H93.0273V49.956H88.8617V62H88.8751Z" fill="#1A1A1A"/>
<path id="Vector_9" d="M105 58.8843V61.9863H94.6531V46.8403H105V49.9424H98.4962V52.95H104.61V55.7823H98.4962V58.8708H105V58.8843Z" fill="#1A1A1A"/>
</g>
</g>
<defs>
<clipPath id="clip0_25_211">
<rect width="105" height="62" fill="white"/>
</clipPath>
</defs>
</svg>
