<svg width="19" height="18" viewBox="0 0 19 18" fill="none" xmlns="http://www.w3.org/2000/svg">
<path id="Vector" d="M10.4173 0.551508L12.5603 4.74975C12.7093 5.04174 12.9974 5.24406 13.3307 5.29081L18.1228 5.96408C18.9622 6.0821 19.2971 7.07917 18.6899 7.65127L15.2224 10.9191C14.9814 11.1464 14.8713 11.474 14.9283 11.7947L15.7468 16.4091C15.8902 17.2172 15.0128 17.8334 14.2621 17.4521L9.97619 15.2737C9.67815 15.1223 9.32185 15.1223 9.02381 15.2737L4.73789 17.4521C3.98724 17.8338 3.10976 17.2172 3.25324 16.4091L4.07166 11.7947C4.12873 11.474 4.01855 11.1464 3.77758 10.9191L0.310085 7.65127C-0.297093 7.07878 0.0378062 6.08172 0.877234 5.96408L5.66927 5.29081C6.00258 5.24406 6.29071 5.04174 6.43973 4.74975L8.58269 0.551508C8.95762 -0.183836 10.042 -0.183836 10.4173 0.551508Z" fill="#FFD600"/>
</svg>
