<svg width="21" height="20" viewBox="0 0 21 20" fill="none" xmlns="http://www.w3.org/2000/svg">
<g id="097-twoo" clip-path="url(#clip0_25_184)">
<path id="Vector" d="M9.39154 14.0984C9.44487 14.0534 9.49904 14.0067 9.54904 13.9576C6.76487 16.6892 2.22487 15.4142 1.16071 11.5617V11.5559C-0.266793 6.31422 5.75237 2.33256 9.54737 5.99922C9.62654 6.08339 14.869 11.6742 14.5357 11.3184H14.5507C15.3332 12.1251 16.4649 12.0367 17.1382 11.3317C17.8624 10.5751 17.8882 9.34006 17.1774 8.57089C16.0549 7.27839 13.8507 8.24422 14.0615 10.1601L12.7999 8.87506L11.3365 7.47589C11.6382 6.87672 12.034 6.35256 12.5299 5.89922C12.4765 5.94506 12.4224 5.99256 12.3724 6.04006C15.1674 3.29839 19.704 4.60339 20.7607 8.43922V8.44422C22.1915 13.6851 16.1657 17.6667 12.374 14.0001C12.2965 13.9167 7.05737 8.29089 7.38904 8.64756L7.38571 8.63506C7.37237 8.63506 7.37237 8.62256 7.37237 8.62256C6.55071 7.77506 5.43654 7.90256 4.78487 8.59672C4.05987 9.35339 4.03487 10.5884 4.74737 11.3459C5.82071 12.6084 8.07237 11.6726 7.86071 9.71839C7.94237 9.80256 10.7682 12.7034 10.5882 12.5192C10.1307 13.4317 9.61904 13.8509 9.39154 14.0984Z" fill="#FF002B"/>
</g>
<defs>
<clipPath id="clip0_25_184">
<rect width="20" height="20" fill="white" transform="translate(0.960938)"/>
</clipPath>
</defs>
</svg>
